<?xml version="1.0" encoding="UTF-8" standalone="no"?><!DOCTYPE svg PUBLIC "-//W3C//DTD SVG 1.1//EN" "http://www.w3.org/Graphics/SVG/1.1/DTD/svg11.dtd"><svg width="100%" height="100%" viewBox="0 0 750 280" version="1.1" xmlns="http://www.w3.org/2000/svg" xmlns:xlink="http://www.w3.org/1999/xlink" xml:space="preserve" xmlns:serif="http://www.serif.com/" style="fill-rule:evenodd;clip-rule:evenodd;stroke-linejoin:round;stroke-miterlimit:1.41421;"><rect x="0" y="0" width="750" height="280" style="fill:#01579b;"/><path d="M175,223.372c0,3.658 -2.97,6.628 -6.628,6.628l-126.744,0c-3.658,0 -6.628,-2.97 -6.628,-6.628l0,-126.744c0,-3.658 2.97,-6.628 6.628,-6.628l126.744,0c3.658,0 6.628,2.97 6.628,6.628l0,126.744Z" style="fill:#fff;"/><path d="M441,105.12c0,8.212 -6.668,14.88 -14.88,14.88l-220.24,0c-8.212,0 -14.88,-6.668 -14.88,-14.88l0,-0.24c0,-8.212 6.668,-14.88 14.88,-14.88l220.24,0c8.212,0 14.88,6.668 14.88,14.88l0,0.24Z" style="fill:#fff;"/><g><path d="M441,140.08c0,5.475 -4.445,9.92 -9.92,9.92l-200.16,0c-5.475,0 -9.92,-4.445 -9.92,-9.92l0,-0.16c0,-5.475 4.445,-9.92 9.92,-9.92l200.16,0c5.475,0 9.92,4.445 9.92,9.92l0,0.16Z" style="fill:#fff;"/><circle cx="203" cy="140" r="10" style="fill:#fff;"/></g><g><path d="M283,50.08c0,5.475 -4.445,9.92 -9.92,9.92l-168.16,0c-5.475,0 -9.92,-4.445 -9.92,-9.92l0,-0.16c0,-5.475 4.445,-9.92 9.92,-9.92l168.16,0c5.475,0 9.92,4.445 9.92,9.92l0,0.16Z" style="fill:#fff;"/><path d="M35,50.08c0,5.475 4.445,9.92 9.92,9.92l20.16,0c5.475,0 9.92,-4.445 9.92,-9.92l0,-0.16c0,-5.475 -4.445,-9.92 -9.92,-9.92l-20.16,0c-5.475,0 -9.92,4.445 -9.92,9.92l0,0.16Z" style="fill:#fff;"/><path d="M715,50.08c0,5.475 -4.445,9.92 -9.92,9.92l-20.16,0c-5.475,0 -9.92,-4.445 -9.92,-9.92l0,-0.16c0,-5.475 4.445,-9.92 9.92,-9.92l20.16,0c5.475,0 9.92,4.445 9.92,9.92l0,0.16Z" style="fill:#fff;"/><path d="M665,50.08c0,5.475 -4.445,9.92 -9.92,9.92l-20.16,0c-5.475,0 -9.92,-4.445 -9.92,-9.92l0,-0.16c0,-5.475 4.445,-9.92 9.92,-9.92l20.16,0c5.475,0 9.92,4.445 9.92,9.92l0,0.16Z" style="fill:#fff;"/></g><g><path d="M441,166.747c0,5.475 -4.445,9.92 -9.92,9.92l-200.16,0c-5.475,0 -9.92,-4.445 -9.92,-9.92l0,-0.16c0,-5.475 4.445,-9.92 9.92,-9.92l200.16,0c5.475,0 9.92,4.445 9.92,9.92l0,0.16Z" style="fill:#fff;"/><circle cx="203" cy="166.667" r="10" style="fill:#fff;"/></g><g><path d="M441,193.413c0,5.475 -4.445,9.92 -9.92,9.92l-200.16,0c-5.475,0 -9.92,-4.445 -9.92,-9.92l0,-0.16c0,-5.475 4.445,-9.92 9.92,-9.92l200.16,0c5.475,0 9.92,4.445 9.92,9.92l0,0.16Z" style="fill:#fff;"/><circle cx="203" cy="193.333" r="10" style="fill:#fff;"/></g><g><path d="M441,220.08c0,5.475 -4.445,9.92 -9.92,9.92l-200.16,0c-5.475,0 -9.92,-4.445 -9.92,-9.92l0,-0.16c0,-5.475 4.445,-9.92 9.92,-9.92l200.16,0c5.475,0 9.92,4.445 9.92,9.92l0,0.16Z" style="fill:#fff;"/><circle cx="203" cy="220" r="10" style="fill:#fff;"/></g></svg>