<?xml version="1.0" encoding="UTF-8" standalone="no"?><!DOCTYPE svg PUBLIC "-//W3C//DTD SVG 1.1//EN" "http://www.w3.org/Graphics/SVG/1.1/DTD/svg11.dtd"><svg width="100%" height="100%" viewBox="0 0 750 280" version="1.1" xmlns="http://www.w3.org/2000/svg" xmlns:xlink="http://www.w3.org/1999/xlink" xml:space="preserve" xmlns:serif="http://www.serif.com/" style="fill-rule:evenodd;clip-rule:evenodd;stroke-linejoin:round;stroke-miterlimit:1.41421;"><rect x="0" y="0" width="750" height="280" style="fill:#fff;"/><path d="M285,75.12c0,8.212 -6.668,14.88 -14.88,14.88l-220.24,0c-8.212,0 -14.88,-6.668 -14.88,-14.88l0,-0.24c0,-8.212 6.668,-14.88 14.88,-14.88l220.24,0c8.212,0 14.88,6.668 14.88,14.88l0,0.24Z" style="fill:#009688;"/><path d="M255,102.56c0,4.106 -3.334,7.44 -7.44,7.44l-205.12,0c-4.106,0 -7.44,-3.334 -7.44,-7.44l0,-0.12c0,-4.106 3.334,-7.44 7.44,-7.44l205.12,0c4.106,0 7.44,3.334 7.44,7.44l0,0.12Z" style="fill:#bdbdbd;"/><path d="M255,122.56c0,4.106 -3.334,7.44 -7.44,7.44l-205.12,0c-4.106,0 -7.44,-3.334 -7.44,-7.44l0,-0.12c0,-4.106 3.334,-7.44 7.44,-7.44l205.12,0c4.106,0 7.44,3.334 7.44,7.44l0,0.12Z" style="fill:#bdbdbd;"/><path d="M285,165.12c0,8.212 -6.668,14.88 -14.88,14.88l-220.24,0c-8.212,0 -14.88,-6.668 -14.88,-14.88l0,-0.24c0,-8.212 6.668,-14.88 14.88,-14.88l220.24,0c8.212,0 14.88,6.668 14.88,14.88l0,0.24Z" style="fill:#009688;"/><path d="M255,192.56c0,4.106 -3.334,7.44 -7.44,7.44l-205.12,0c-4.106,0 -7.44,-3.334 -7.44,-7.44l0,-0.12c0,-4.106 3.334,-7.44 7.44,-7.44l205.12,0c4.106,0 7.44,3.334 7.44,7.44l0,0.12Z" style="fill:#bdbdbd;"/><path d="M255,212.56c0,4.106 -3.334,7.44 -7.44,7.44l-205.12,0c-4.106,0 -7.44,-3.334 -7.44,-7.44l0,-0.12c0,-4.106 3.334,-7.44 7.44,-7.44l205.12,0c4.106,0 7.44,3.334 7.44,7.44l0,0.12Z" style="fill:#bdbdbd;"/><path d="M351.737,209.517l-14.181,0c0,-31.305 25.417,-56.721 56.722,-56.721c31.281,0 56.682,25.376 56.722,56.721l-14.18,0c0,-23.479 -19.063,-42.541 -42.542,-42.541c-23.454,0 -42.501,19.022 -42.541,42.541Z" style="fill:#bdbdbd;"/><path d="M333.214,209.517c0.198,-15.351 6.156,-30.637 17.859,-42.34c23.82,-23.82 62.486,-23.839 86.387,0l-15.732,15.732c-15.156,-15.157 -39.767,-15.157 -54.924,0c-7.363,7.363 -11.15,16.958 -11.322,26.608l-22.268,0Z" style="fill:#009688;"/><path d="M484.13,209.517l-14.18,0c0,-31.305 25.416,-56.721 56.721,-56.721c31.281,0 56.682,25.376 56.722,56.721l-14.18,0c0,-23.479 -19.062,-42.541 -42.542,-42.541c-23.454,0 -42.501,19.022 -42.541,42.541Z" style="fill:#bdbdbd;"/><path d="M465.607,209.517c0.198,-15.351 6.156,-30.637 17.859,-42.34c23.82,-23.82 62.487,-23.839 86.387,0l-15.731,15.732c-15.157,-15.157 -39.768,-15.157 -54.925,0c-7.363,7.363 -11.149,16.958 -11.322,26.608l-22.268,0Z" style="fill:#009688;"/><path d="M616.523,209.517l-14.18,0c0,-31.305 25.416,-56.721 56.722,-56.721c31.28,0 56.681,25.376 56.721,56.721l-14.18,0c0,-23.479 -19.062,-42.541 -42.541,-42.541c-23.455,0 -42.501,19.022 -42.542,42.541Z" style="fill:#bdbdbd;"/><path d="M598,209.517c0.198,-15.351 6.156,-30.637 17.859,-42.34c23.82,-23.82 62.487,-23.839 86.387,0l-15.731,15.732c-15.157,-15.157 -39.768,-15.157 -54.925,0c-7.363,7.363 -11.149,16.958 -11.321,26.608l-22.269,0Z" style="fill:#009688;"/><path d="M408.705,94.86l6.338,0l0,9.507l9.507,0l0,6.338l-9.507,0l0,9.507l-6.338,0l0,-9.507l-9.507,0l0,-6.338l9.507,0l0,-9.507m-44.367,-34.86l44.367,0c3.477,0 6.338,2.861 6.338,6.338l0,22.437c-4.912,-0.824 -9.76,0.317 -13.69,2.916l-11.662,0l0,12.676l3.422,0c-0.348,2.155 -0.348,4.278 0,6.338l-28.775,0c-3.477,0 -6.338,-2.861 -6.338,-6.338l0,-38.029c0,-3.477 2.861,-6.338 6.338,-6.338m0,12.676l0,12.677l19.015,0l0,-12.677l-19.015,0m25.353,0l0,12.677l19.014,0l0,-12.677l-19.014,0m-25.353,19.015l0,12.676l19.015,0l0,-12.676l-19.015,0Z" style="fill:#009688;fill-rule:nonzero;"/><path d="M543.574,60l-15.053,13.548l0,33.117l15.053,-13.548l0,-33.117m-37.632,9.032c-5.871,0 -12.193,1.204 -16.559,4.516l0,44.135c0,0.753 0.753,1.506 1.506,1.506c0.301,0 0.451,-0.211 0.752,-0.211c4.065,-1.957 9.935,-3.282 14.301,-3.282c5.87,0 12.193,1.205 16.558,4.516c4.064,-2.559 11.44,-4.516 16.558,-4.516c4.968,0 10.086,0.934 14.301,3.192c0.301,0.15 0.451,0.09 0.752,0.09c0.753,0 1.506,-0.753 1.506,-1.505l0,-43.925c-1.807,-1.355 -3.763,-2.258 -6.021,-3.011l0,40.643c-3.312,-1.053 -6.925,-1.505 -10.538,-1.505c-5.118,0 -12.494,1.957 -16.558,4.516l0,-21.074l0,-13.548l0,-6.021c-4.365,-3.312 -10.688,-4.516 -16.558,-4.516Z" style="fill:#009688;fill-rule:nonzero;"/><path d="M653.556,86.584c1.932,0 3.522,1.59 3.522,3.522c0,1.933 -1.59,3.523 -3.522,3.523c-1.933,0 -3.523,-1.59 -3.523,-3.523c0,-1.932 1.59,-3.522 3.523,-3.522m-27.406,-23.883c5.038,-5.037 15.957,-2.783 27.406,4.72c11.448,-7.503 22.368,-9.757 27.405,-4.72c5.037,5.037 2.783,15.957 -4.72,27.405c7.503,11.448 9.757,22.368 4.72,27.406c-5.037,5.037 -15.957,2.782 -27.405,-4.721c-11.449,7.503 -22.368,9.758 -27.406,4.721c-5.037,-5.038 -2.782,-15.958 4.721,-27.406c-7.503,-11.448 -9.758,-22.368 -4.721,-27.405m39.875,14.935c2.149,2.184 4.122,4.404 5.954,6.623c4.861,-7.503 6.622,-13.949 3.98,-16.556c-2.607,-2.642 -9.053,-0.881 -16.556,3.98c2.219,1.832 4.438,3.805 6.622,5.953m-24.939,24.94c-2.149,-2.184 -4.121,-4.403 -5.953,-6.622c-4.861,7.503 -6.623,13.949 -3.981,16.556c2.607,2.641 9.053,0.88 16.556,-3.981c-2.219,-1.832 -4.438,-3.804 -6.622,-5.953m-9.934,-34.873c-2.642,2.607 -0.88,9.053 3.981,16.556c1.832,-2.219 3.804,-4.439 5.953,-6.623c2.184,-2.148 4.403,-4.121 6.622,-5.953c-7.503,-4.861 -13.949,-6.622 -16.556,-3.98m14.936,29.871c2.466,2.466 5.002,4.72 7.468,6.728c2.465,-2.008 5.002,-4.262 7.467,-6.728c2.466,-2.466 4.721,-5.002 6.729,-7.468c-2.008,-2.466 -4.263,-5.002 -6.729,-7.468c-2.465,-2.465 -5.002,-4.72 -7.467,-6.728c-2.466,2.008 -5.002,4.263 -7.468,6.728c-2.466,2.466 -4.72,5.002 -6.728,7.468c2.008,2.466 4.262,5.002 6.728,7.468m29.871,14.936c2.642,-2.607 0.881,-9.053 -3.98,-16.556c-1.832,2.219 -3.805,4.438 -5.954,6.622c-2.184,2.149 -4.403,4.121 -6.622,5.953c7.503,4.861 13.949,6.622 16.556,3.981Z" style="fill:#009688;fill-rule:nonzero;"/></svg>